<mxfile host="Electron" agent="Mozilla/5.0 (Windows NT 10.0; Win64; x64) AppleWebKit/537.36 (KHTML, like Gecko) draw.io/24.7.8 Chrome/128.0.6613.36 Electron/32.0.1 Safari/537.36" version="24.7.8">
  <diagram name="Page-1" id="ZAPdYCXploGKOdcnQihl">
    <mxGraphModel dx="1018" dy="759" grid="1" gridSize="10" guides="1" tooltips="1" connect="1" arrows="1" fold="1" page="1" pageScale="1" pageWidth="850" pageHeight="1100" math="0" shadow="0">
      <root>
        <mxCell id="0" />
        <mxCell id="1" parent="0" />
        <mxCell id="gM8u8T2N6P45ij5PoDqh-2" value="" style="rounded=1;html=1;fillColor=#f5f5f5;fontColor=#333333;strokeColor=#666666;" parent="1" vertex="1">
          <mxGeometry x="75" y="410" width="700" height="110" as="geometry" />
        </mxCell>
        <mxCell id="gM8u8T2N6P45ij5PoDqh-3" value="" style="rounded=1;html=1;fillColor=#f5f5f5;fontColor=#333333;strokeColor=#666666;" parent="1" vertex="1">
          <mxGeometry x="75" y="540" width="700" height="180" as="geometry" />
        </mxCell>
        <mxCell id="gM8u8T2N6P45ij5PoDqh-4" value="&lt;p style=&quot;language:en-US;margin-top:0pt;margin-bottom:0pt;margin-left:0in;&lt;br/&gt;text-align:left;direction:ltr;unicode-bidi:embed;mso-line-break-override:none;&lt;br/&gt;word-break:normal;punctuation-wrap:hanging&quot;&gt;&lt;span style=&quot;font-size: 14px;&quot;&gt;&lt;font face=&quot;Helvetica&quot; style=&quot;font-size: 14px;&quot;&gt;&lt;b style=&quot;&quot;&gt;Extraction of Retrievable Elements Experiment&lt;/b&gt;&lt;/font&gt;&lt;/span&gt;&lt;/p&gt;" style="text;html=1;align=center;verticalAlign=middle;rounded=0;" parent="1" vertex="1">
          <mxGeometry x="130" y="380" width="590" height="30" as="geometry" />
        </mxCell>
        <mxCell id="gM8u8T2N6P45ij5PoDqh-5" value="" style="rounded=0;html=1;fillColor=#dae8fc;strokeColor=#6c8ebf;" parent="1" vertex="1">
          <mxGeometry x="90" y="418.25" width="80" height="65" as="geometry" />
        </mxCell>
        <mxCell id="gM8u8T2N6P45ij5PoDqh-7" value="Extracion&amp;nbsp;&lt;div&gt;Methods&lt;/div&gt;" style="rounded=1;html=1;" parent="1" vertex="1">
          <mxGeometry x="295" y="447" width="85" height="42.5" as="geometry" />
        </mxCell>
        <mxCell id="gM8u8T2N6P45ij5PoDqh-11" value="" style="rounded=0;html=1;fillColor=#dae8fc;strokeColor=#6c8ebf;" parent="1" vertex="1">
          <mxGeometry x="100" y="428.25" width="80" height="65" as="geometry" />
        </mxCell>
        <mxCell id="gM8u8T2N6P45ij5PoDqh-12" value="" style="rounded=0;html=1;fillColor=#dae8fc;strokeColor=#6c8ebf;" parent="1" vertex="1">
          <mxGeometry x="110" y="438.25" width="80" height="65" as="geometry" />
        </mxCell>
        <mxCell id="gM8u8T2N6P45ij5PoDqh-13" value="Chinese&lt;div&gt;&amp;nbsp;Patent&lt;/div&gt;&lt;div&gt;&amp;nbsp;Application&lt;/div&gt;&lt;div&gt;&amp;nbsp;Texts&lt;/div&gt;" style="rounded=0;html=1;fillColor=#dae8fc;strokeColor=#6c8ebf;" parent="1" vertex="1">
          <mxGeometry x="120" y="448.25" width="80" height="65" as="geometry" />
        </mxCell>
        <mxCell id="gM8u8T2N6P45ij5PoDqh-14" value="" style="rounded=0;html=1;fillColor=#ffe6cc;strokeColor=#d79b00;" parent="1" vertex="1">
          <mxGeometry x="460" y="430.75" width="80" height="50" as="geometry" />
        </mxCell>
        <mxCell id="gM8u8T2N6P45ij5PoDqh-15" value="F1 score" style="rounded=0;html=1;fillColor=#e1d5e7;strokeColor=#9673a6;" parent="1" vertex="1">
          <mxGeometry x="640" y="440.75" width="120" height="60" as="geometry" />
        </mxCell>
        <mxCell id="gM8u8T2N6P45ij5PoDqh-17" value="" style="rounded=0;html=1;fillColor=#ffe6cc;strokeColor=#d79b00;" parent="1" vertex="1">
          <mxGeometry x="470" y="440.75" width="80" height="50" as="geometry" />
        </mxCell>
        <mxCell id="gM8u8T2N6P45ij5PoDqh-18" value="" style="rounded=0;html=1;fillColor=#ffe6cc;strokeColor=#d79b00;" parent="1" vertex="1">
          <mxGeometry x="480" y="450.75" width="80" height="50" as="geometry" />
        </mxCell>
        <mxCell id="gM8u8T2N6P45ij5PoDqh-19" value="" style="rounded=0;html=1;fillColor=#f8cecc;strokeColor=#b85450;" parent="1" vertex="1">
          <mxGeometry x="85" y="577.5" width="80" height="65" as="geometry" />
        </mxCell>
        <mxCell id="gM8u8T2N6P45ij5PoDqh-20" value="" style="rounded=0;html=1;fillColor=#f8cecc;strokeColor=#b85450;" parent="1" vertex="1">
          <mxGeometry x="95" y="587.5" width="80" height="65" as="geometry" />
        </mxCell>
        <mxCell id="gM8u8T2N6P45ij5PoDqh-21" value="" style="rounded=0;html=1;fillColor=#f8cecc;strokeColor=#b85450;" parent="1" vertex="1">
          <mxGeometry x="105" y="597.5" width="80" height="65" as="geometry" />
        </mxCell>
        <mxCell id="gM8u8T2N6P45ij5PoDqh-22" value="&lt;p style=&quot;margin-top: 0pt; margin-bottom: 0pt; margin-left: 0in; direction: ltr; unicode-bidi: embed; word-break: normal;&quot;&gt;&lt;span style=&quot;font-family: Cambria;&quot;&gt;&lt;font style=&quot;font-size: 12px;&quot;&gt;Patent&amp;nbsp;&lt;/font&gt;&lt;/span&gt;&lt;/p&gt;&lt;p style=&quot;margin-top: 0pt; margin-bottom: 0pt; margin-left: 0in; direction: ltr; unicode-bidi: embed; word-break: normal;&quot;&gt;&lt;span style=&quot;font-family: Cambria;&quot;&gt;&lt;font style=&quot;font-size: 12px;&quot;&gt;Examination&lt;/font&gt;&lt;/span&gt;&lt;/p&gt;&lt;p style=&quot;margin-top: 0pt; margin-bottom: 0pt; margin-left: 0in; direction: ltr; unicode-bidi: embed; word-break: normal;&quot;&gt;&lt;span style=&quot;font-family: Cambria;&quot;&gt;&lt;font style=&quot;font-size: 12px;&quot;&gt;Reports&lt;/font&gt;&lt;/span&gt;&lt;/p&gt;" style="rounded=0;html=1;fillColor=#f8cecc;strokeColor=#b85450;" parent="1" vertex="1">
          <mxGeometry x="115" y="607.5" width="80" height="65" as="geometry" />
        </mxCell>
        <mxCell id="gM8u8T2N6P45ij5PoDqh-23" value="PRES" style="rounded=0;html=1;fillColor=#e1d5e7;strokeColor=#9673a6;" parent="1" vertex="1">
          <mxGeometry x="476" y="650" width="120" height="60.5" as="geometry" />
        </mxCell>
        <mxCell id="gM8u8T2N6P45ij5PoDqh-24" value="JSS" style="rounded=1;html=1;" parent="1" vertex="1">
          <mxGeometry x="657.5" y="550" width="85" height="39.25" as="geometry" />
        </mxCell>
        <mxCell id="gM8u8T2N6P45ij5PoDqh-28" value="&lt;p style=&quot;margin-top: 0pt; margin-bottom: 0pt; margin-left: 0in; direction: ltr; unicode-bidi: embed; word-break: normal;&quot;&gt;&lt;br&gt;&lt;/p&gt;" style="rounded=0;html=1;fillColor=#d5e8d4;strokeColor=#82b366;" parent="1" vertex="1">
          <mxGeometry x="308" y="639.75" width="80" height="45" as="geometry" />
        </mxCell>
        <mxCell id="gM8u8T2N6P45ij5PoDqh-29" value="&lt;p style=&quot;margin-top: 0pt; margin-bottom: 0pt; margin-left: 0in; direction: ltr; unicode-bidi: embed; word-break: normal;&quot;&gt;&lt;br&gt;&lt;/p&gt;" style="rounded=0;html=1;fillColor=#d5e8d4;strokeColor=#82b366;" parent="1" vertex="1">
          <mxGeometry x="318" y="649.75" width="80" height="45" as="geometry" />
        </mxCell>
        <mxCell id="gM8u8T2N6P45ij5PoDqh-31" value="&lt;p style=&quot;margin-top: 0pt; margin-bottom: 0pt; margin-left: 0in; direction: ltr; unicode-bidi: embed; word-break: normal;&quot;&gt;&lt;br&gt;&lt;/p&gt;" style="rounded=0;html=1;fillColor=#d5e8d4;strokeColor=#82b366;" parent="1" vertex="1">
          <mxGeometry x="649" y="636.5" width="80" height="45" as="geometry" />
        </mxCell>
        <mxCell id="gM8u8T2N6P45ij5PoDqh-32" value="&lt;p style=&quot;margin-top: 0pt; margin-bottom: 0pt; margin-left: 0in; direction: ltr; unicode-bidi: embed; word-break: normal;&quot;&gt;&lt;br&gt;&lt;/p&gt;" style="rounded=0;html=1;fillColor=#d5e8d4;strokeColor=#82b366;" parent="1" vertex="1">
          <mxGeometry x="659" y="646.5" width="80" height="45" as="geometry" />
        </mxCell>
        <mxCell id="gM8u8T2N6P45ij5PoDqh-33" value="&lt;p style=&quot;margin-top: 0pt; margin-bottom: 0pt; margin-left: 0in; direction: ltr; unicode-bidi: embed; word-break: normal;&quot;&gt;&lt;br&gt;&lt;/p&gt;" style="rounded=0;html=1;fillColor=#d5e8d4;strokeColor=#82b366;" parent="1" vertex="1">
          <mxGeometry x="669" y="656.5" width="80" height="45" as="geometry" />
        </mxCell>
        <mxCell id="gM8u8T2N6P45ij5PoDqh-34" value="&lt;p style=&quot;margin-top: 0pt; margin-bottom: 0pt; margin-left: 0in; direction: ltr; unicode-bidi: embed; word-break: normal;&quot;&gt;&lt;br&gt;&lt;/p&gt;" style="rounded=0;html=1;fillColor=#d5e8d4;strokeColor=#82b366;" parent="1" vertex="1">
          <mxGeometry x="328" y="659.75" width="80" height="45" as="geometry" />
        </mxCell>
        <mxCell id="gM8u8T2N6P45ij5PoDqh-38" value="" style="shape=flexArrow;endArrow=classic;html=1;rounded=0;fillColor=#bac8d3;strokeColor=#23445d;" parent="1" edge="1">
          <mxGeometry width="50" height="50" relative="1" as="geometry">
            <mxPoint x="404" y="470.5" as="sourcePoint" />
            <mxPoint x="443.68" y="470.25" as="targetPoint" />
          </mxGeometry>
        </mxCell>
        <mxCell id="gM8u8T2N6P45ij5PoDqh-39" value="" style="shape=flexArrow;endArrow=classic;html=1;rounded=0;fillColor=#bac8d3;strokeColor=#23445d;" parent="1" edge="1">
          <mxGeometry width="50" height="50" relative="1" as="geometry">
            <mxPoint x="230.32" y="465.45" as="sourcePoint" />
            <mxPoint x="270" y="465.25" as="targetPoint" />
          </mxGeometry>
        </mxCell>
        <mxCell id="gM8u8T2N6P45ij5PoDqh-44" value="" style="shape=flexArrow;endArrow=classic;html=1;rounded=0;fillColor=#bac8d3;strokeColor=#23445d;" parent="1" edge="1">
          <mxGeometry width="50" height="50" relative="1" as="geometry">
            <mxPoint x="701" y="597" as="sourcePoint" />
            <mxPoint x="701" y="632" as="targetPoint" />
          </mxGeometry>
        </mxCell>
        <mxCell id="gM8u8T2N6P45ij5PoDqh-57" value="" style="shape=flexArrow;endArrow=classic;html=1;rounded=0;fillColor=#bac8d3;strokeColor=#23445d;" parent="1" edge="1">
          <mxGeometry width="50" height="50" relative="1" as="geometry">
            <mxPoint x="427.07" y="669.75" as="sourcePoint" />
            <mxPoint x="463.92039370078766" y="682.75" as="targetPoint" />
          </mxGeometry>
        </mxCell>
        <mxCell id="gM8u8T2N6P45ij5PoDqh-58" value="" style="shape=flexArrow;endArrow=classic;html=1;rounded=0;entryX=0.719;entryY=0.579;entryDx=0;entryDy=0;entryPerimeter=0;fillColor=#bac8d3;strokeColor=#23445d;" parent="1" edge="1">
          <mxGeometry width="50" height="50" relative="1" as="geometry">
            <mxPoint x="637.84" y="662" as="sourcePoint" />
            <mxPoint x="607.9999999999999" y="682.01" as="targetPoint" />
          </mxGeometry>
        </mxCell>
        <mxCell id="gM8u8T2N6P45ij5PoDqh-59" value="Relevant Document Retrieval Experiment" style="text;fontSize=14;fontStyle=1;align=center;rounded=0;" parent="1" vertex="1">
          <mxGeometry x="155" y="720" width="540" height="30" as="geometry" />
        </mxCell>
        <mxCell id="gM8u8T2N6P45ij5PoDqh-63" value="" style="shape=flexArrow;endArrow=classic;html=1;rounded=0;entryX=0.779;entryY=0.194;entryDx=0;entryDy=0;entryPerimeter=0;fillColor=#bac8d3;strokeColor=#23445d;" parent="1" target="gM8u8T2N6P45ij5PoDqh-3" edge="1">
          <mxGeometry width="50" height="50" relative="1" as="geometry">
            <mxPoint x="450" y="575" as="sourcePoint" />
            <mxPoint x="599.3000000000002" y="574.97" as="targetPoint" />
          </mxGeometry>
        </mxCell>
        <mxCell id="gM8u8T2N6P45ij5PoDqh-67" value="&lt;p style=&quot;margin-top: 0pt; margin-bottom: 0pt; margin-left: 0in; direction: ltr; unicode-bidi: embed; word-break: normal;&quot;&gt;&lt;br&gt;&lt;/p&gt;" style="rounded=0;html=1;fillColor=#d5e8d4;strokeColor=#82b366;" parent="1" vertex="1">
          <mxGeometry x="303" y="522.5" width="80" height="45" as="geometry" />
        </mxCell>
        <mxCell id="gM8u8T2N6P45ij5PoDqh-68" value="" style="shape=flexArrow;endArrow=classic;html=1;rounded=0;fillColor=#bac8d3;strokeColor=#23445d;" parent="1" edge="1">
          <mxGeometry width="50" height="50" relative="1" as="geometry">
            <mxPoint x="227.07" y="652.75" as="sourcePoint" />
            <mxPoint x="263.92039370078766" y="665.75" as="targetPoint" />
          </mxGeometry>
        </mxCell>
        <mxCell id="gM8u8T2N6P45ij5PoDqh-69" value="" style="shape=flexArrow;endArrow=classic;html=1;rounded=0;entryX=0.274;entryY=0.368;entryDx=0;entryDy=0;entryPerimeter=0;fillColor=#bac8d3;strokeColor=#23445d;" parent="1" edge="1">
          <mxGeometry width="50" height="50" relative="1" as="geometry">
            <mxPoint x="226" y="602.5" as="sourcePoint" />
            <mxPoint x="262.79999999999995" y="588.9200000000001" as="targetPoint" />
          </mxGeometry>
        </mxCell>
        <mxCell id="gM8u8T2N6P45ij5PoDqh-70" value="" style="shape=flexArrow;endArrow=classic;html=1;rounded=0;fillColor=#bac8d3;strokeColor=#23445d;" parent="1" edge="1">
          <mxGeometry width="50" height="50" relative="1" as="geometry">
            <mxPoint x="582" y="470.45" as="sourcePoint" />
            <mxPoint x="621.6800000000001" y="470.25" as="targetPoint" />
          </mxGeometry>
        </mxCell>
        <mxCell id="gM8u8T2N6P45ij5PoDqh-71" value="&lt;p style=&quot;margin-top: 0pt; margin-bottom: 0pt; margin-left: 0in; direction: ltr; unicode-bidi: embed; word-break: normal;&quot;&gt;&lt;br&gt;&lt;/p&gt;" style="rounded=0;html=1;fillColor=#d5e8d4;strokeColor=#82b366;" parent="1" vertex="1">
          <mxGeometry x="313" y="532.5" width="80" height="45" as="geometry" />
        </mxCell>
        <mxCell id="gM8u8T2N6P45ij5PoDqh-72" value="&lt;p style=&quot;margin-top: 0pt; margin-bottom: 0pt; margin-left: 0in; direction: ltr; unicode-bidi: embed; word-break: normal;&quot;&gt;&lt;br&gt;&lt;/p&gt;" style="rounded=0;html=1;fillColor=#d5e8d4;strokeColor=#82b366;" parent="1" vertex="1">
          <mxGeometry x="323" y="542.5" width="80" height="45" as="geometry" />
        </mxCell>
        <mxCell id="gM8u8T2N6P45ij5PoDqh-73" value="&lt;p style=&quot;margin-top: 0pt; margin-bottom: 0pt; margin-left: 0in; direction: ltr; unicode-bidi: embed; word-break: normal;&quot;&gt;&lt;font face=&quot;Cambria&quot;&gt;Gold&lt;/font&gt;&lt;/p&gt;&lt;p style=&quot;margin-top: 0pt; margin-bottom: 0pt; margin-left: 0in; direction: ltr; unicode-bidi: embed; word-break: normal;&quot;&gt;&lt;font face=&quot;Cambria&quot;&gt;Standard&lt;/font&gt;&lt;br&gt;&lt;/p&gt;" style="rounded=0;html=1;fillColor=#d5e8d4;strokeColor=#82b366;" parent="1" vertex="1">
          <mxGeometry x="333" y="552.5" width="80" height="45" as="geometry" />
        </mxCell>
        <mxCell id="gM8u8T2N6P45ij5PoDqh-77" value="&lt;p style=&quot;margin-top: 0pt; margin-bottom: 0pt; margin-left: 0in; direction: ltr; unicode-bidi: embed; word-break: normal;&quot;&gt;&lt;font face=&quot;Cambria&quot;&gt;Retrieval&lt;/font&gt;&lt;/p&gt;&lt;p style=&quot;margin-top: 0pt; margin-bottom: 0pt; margin-left: 0in; direction: ltr; unicode-bidi: embed; word-break: normal;&quot;&gt;&lt;font face=&quot;Cambria&quot;&gt;Results&lt;/font&gt;&lt;br&gt;&lt;/p&gt;" style="rounded=0;html=1;fillColor=#d5e8d4;strokeColor=#82b366;" parent="1" vertex="1">
          <mxGeometry x="679" y="666.5" width="80" height="45" as="geometry" />
        </mxCell>
        <mxCell id="gM8u8T2N6P45ij5PoDqh-78" value="&lt;p style=&quot;margin-top: 0pt; margin-bottom: 0pt; margin-left: 0in; direction: ltr; unicode-bidi: embed; word-break: normal;&quot;&gt;&lt;font face=&quot;Cambria&quot;&gt;Relevant&lt;/font&gt;&lt;/p&gt;&lt;p style=&quot;margin-top: 0pt; margin-bottom: 0pt; margin-left: 0in; direction: ltr; unicode-bidi: embed; word-break: normal;&quot;&gt;&lt;font face=&quot;Cambria&quot;&gt;Documents&lt;/font&gt;&lt;br&gt;&lt;/p&gt;" style="rounded=0;html=1;fillColor=#d5e8d4;strokeColor=#82b366;" parent="1" vertex="1">
          <mxGeometry x="338" y="669.75" width="80" height="45" as="geometry" />
        </mxCell>
        <mxCell id="gM8u8T2N6P45ij5PoDqh-79" value="Retrievable&lt;div&gt;Elements&lt;/div&gt;" style="rounded=0;html=1;fillColor=#ffe6cc;strokeColor=#d79b00;" parent="1" vertex="1">
          <mxGeometry x="490" y="460.75" width="80" height="50" as="geometry" />
        </mxCell>
        <mxCell id="gM8u8T2N6P45ij5PoDqh-80" value="" style="shape=flexArrow;endArrow=classic;html=1;rounded=0;entryX=0.779;entryY=0.909;entryDx=0;entryDy=0;entryPerimeter=0;exitX=0.536;exitY=0.111;exitDx=0;exitDy=0;exitPerimeter=0;fillColor=#bac8d3;strokeColor=#23445d;" parent="1" source="gM8u8T2N6P45ij5PoDqh-3" target="gM8u8T2N6P45ij5PoDqh-2" edge="1">
          <mxGeometry width="50" height="50" relative="1" as="geometry">
            <mxPoint x="492" y="585" as="sourcePoint" />
            <mxPoint x="609.3000000000002" y="584.97" as="targetPoint" />
          </mxGeometry>
        </mxCell>
      </root>
    </mxGraphModel>
  </diagram>
</mxfile>
